<?xml version="1.0" encoding="utf-8"?>
<!-- Generator: Adobe Illustrator 24.1.0, SVG Export Plug-In . SVG Version: 6.00 Build 0)  -->
<svg version="1.1" xmlns="http://www.w3.org/2000/svg" xmlns:xlink="http://www.w3.org/1999/xlink" x="0px" y="0px"
	 viewBox="0 0 792 792" style="enable-background:new 0 0 792 792;" xml:space="preserve">
<style type="text/css">
	.st0{fill:url(#SVGID_1_);}
	.st1{stroke:#FFFFFF;stroke-width:7;stroke-miterlimit:10;}
	.st2{fill:none;stroke:#FFFFFF;stroke-width:5;stroke-miterlimit:10;}
	.st3{fill:#FFFFFF;}
	.st4{fill:none;stroke:#000000;stroke-width:14;stroke-linecap:round;stroke-linejoin:round;stroke-miterlimit:10;}
	.st5{fill:none;stroke:#FFFFFF;stroke-width:7;stroke-miterlimit:10;}
</style>
<g id="Layer_1">
	
		<linearGradient id="SVGID_1_" gradientUnits="userSpaceOnUse" x1="92.3307" y1="378.1869" x2="686.8277" y2="378.1869" gradientTransform="matrix(1 0 0 1 1.5172 2.2266)">
		<stop  offset="0" style="stop-color:#406AB3"/>
		<stop  offset="1" style="stop-color:#70C280"/>
	</linearGradient>
	<circle class="st0" cx="391.1" cy="380.41" r="297.25"/>
	<g>
		<path d="M190.64,76.93c1.75,3.15,3.45,6.34,5.25,9.46c64.65,112.03,129.32,224.05,193.98,336.08c0.3,0.52,0.63,1.03,1.05,1.71
			c0.43-0.68,0.76-1.19,1.06-1.71c66.18-114.66,132.36-229.33,198.54-343.99c0.31-0.54,0.68-1.03,1.03-1.55H190.64z M334.89,114
			c0,1.72-1.3,3.74-3.09,4.06c-1.44,0.26-2.83,0.49-4.29,0.36c-0.33-0.03-0.65-0.09-0.94-0.18c-0.64,0.16-1.28,0.35-1.9,0.62
			c-0.86,0.96-1.85,1.81-2.81,2.72c-2.03,1.93-2.63,4.21-3.41,6.86c-0.19,0.64-0.49,1.16-0.86,1.59c0.24,1.84,0.34,3.63,0.51,4.92
			c0.54,4.1,2.16,10.24,0.89,14.44c0.35,2.43,0.5,4.82,0.28,7.24c2.34,4.96-0.76,10.75-4.13,14.71c-0.69,1.78-2.38,2.74-4.05,2.87
			c-1,0.92-2.02,1.81-3.13,2.57c5.14,2.07,9.65,5.42,10.7,11.37c0.11,0.6,0.11,1.16,0.02,1.67c3.81,7.93-0.35,19.92-1.14,27.78
			c-0.03,0.31-0.09,0.6-0.17,0.88c0.09,0.23,0.18,0.48,0.23,0.75c0.73,3.52,1.35,7.1,0.89,10.59c0.42,0.15,0.83,0.36,1.2,0.66
			c3.96,3.24,7.23,3.94,12.1,4.84c2.36,0.43,3.35,3.1,2.94,5.18c-0.07,0.35-0.14,0.7-0.21,1.06c-0.35,1.75-2.33,3.14-4.06,3.09
			c-3.03-0.1-5.99-0.53-8.94-1.21c-1.03-0.24-1.76-0.74-2.25-1.37c-0.29-0.08-0.58-0.17-0.87-0.32c-3.27-1.7-6.61-3.24-8.49-6.58
			c-0.34-0.61-0.52-1.2-0.58-1.77c-7.66-8.16-1.34-21.33-1.06-31.02c0.03-1.07,0.38-1.92,0.92-2.57c0.08-3.3,0.09-6.61-0.55-9.84
			c-0.04-0.22-0.06-0.44-0.07-0.66c-0.8-0.47-1.46-1.21-1.83-2.3c-0.18-0.53-0.45-0.97-0.79-1.34c-0.47-0.36-0.96-0.7-1.51-1.01
			c-0.15-0.09-0.29-0.18-0.42-0.27c-3.84-1.44-8.1-2.44-9.04-6.17c-1.61-2.46-0.51-6.69,3.34-6.69c0.16,0,0.29,0.03,0.44,0.04
			c0.33-0.14,0.67-0.28,1.02-0.39c3.33-1.13,5.46-3.22,7.96-5.36c0.36-1.82,0.84-3.61,1.49-5.34c-0.67-3.58-1.12-7.26-0.86-10.88
			c-0.63-0.48-1.13-1.18-1.41-2.14c-1.08-3.68-3.32-17.84,0.21-23.47c-0.04-0.5,0.02-1.03,0.21-1.6
			c2.08-6.19,7.61-11.09,14.15-12.03c0.79-0.11,1.53-0.05,2.2,0.15c1.82-0.53,3.74-0.93,5.83-1.42c2.64-0.63,5.33,1.25,5.33,4.06
			V114z M364.89,179.96c-0.73,2.35-2.06,4.72-4.28,5.96c-2.05,1.14-4.56,1.14-6.79,0.69c-1.47-0.3-2.85-0.96-3.97-1.86
			c-0.88-0.39-1.61-1.04-2.13-1.85c-0.92-1.43-1.22-3.05-1.03-4.69c-0.53-1.48-0.6-3.16-0.2-4.66c1.41-5.31,7.4-7.94,12.46-6.36
			C364.6,168.94,366.56,174.59,364.89,179.96z M400.67,179.67c-0.02,0.07-0.05,0.14-0.07,0.2c-0.22,0.63-0.6,1.63-0.94,2.21
			c-0.43,0.73-0.96,1.44-1.55,2.03c-0.04,0.04-0.08,0.09-0.13,0.13c-0.3,0.31-1.51,1.23-1.87,1.45c-0.74,0.45-1.55,0.78-2.37,1.03
			c-1.78,0.56-3.61,0.46-5.4,0.06c-0.53-0.12-1-0.37-1.51-0.58c-0.56-0.24-1.1-0.42-1.6-0.76c-1.32-0.78-2.37-1.83-3.16-3.16
			l-0.89-2.1c-0.47-1.45-0.41-2.99-0.03-4.45c0.05-0.36,0.13-0.72,0.24-1.07c0.23-0.95,0.64-1.8,1.22-2.55
			c0.15-0.35,0.32-0.69,0.51-1.03c0.78-1.32,1.83-2.37,3.16-3.16c1.37-0.8,2.85-1.2,4.44-1.2c1.76-0.11,3.73,0.47,5.26,1.33
			c0.74,0.42,1.47,0.95,2.05,1.55c0.04,0.04,0.09,0.09,0.13,0.13c0.29,0.3,1.24,1.51,1.45,1.88
			C401.01,174.04,401.43,176.96,400.67,179.67z M435.14,181.04c-0.35,1.09-0.96,2.03-1.82,2.83c-1.46,1.25-2.69,2.17-4.6,2.65
			c-0.39,0.1-2.05,0.33-2.45,0.33c-0.05,0-0.11,0-0.16,0c-0.9,0.01-1.79-0.14-2.64-0.39c-0.79-0.23-1.65-0.57-2.36-1.04
			c-0.59-0.46-1.19-0.92-1.78-1.38c-0.03-0.02-0.05-0.04-0.08-0.07c-0.04-0.04-0.07-0.08-0.11-0.11c-1.21-1.26-2.08-2.74-2.56-4.42
			c-0.74-2.63-0.42-5.61,1.04-7.95c1.35-2.16,3.29-3.6,5.71-4.36c1.05-0.33,2.23-0.53,3.34-0.38c1.59,0,3.07,0.41,4.44,1.2
			l1.78,1.38c0.86,0.8,1.46,1.74,1.82,2.83c0.47,0.89,0.7,1.83,0.74,2.84c0.32,0.84,0.47,1.73,0.44,2.67
			C435.95,178.86,435.69,179.99,435.14,181.04z M487.8,177.26c-0.12,2.12-2.09,3.91-4.24,3.96c-3.16,0.07-5.65,1.19-7.56,2.96
			c-0.04,0.62-0.23,1.27-0.64,1.93c-0.78,1.25-1.36,2.56-1.85,3.92c1.37,3.95,1.19,8.24,1.41,12.37c0.32,5.99,0.54,11.98,1.01,17.96
			c0,0.05,0,0.09,0,0.14c0.26,0.67,0.39,1.41,0.27,2.25c-0.52,3.88,0.41,7.45-1.9,10.94c-0.07,0.11-0.16,0.2-0.24,0.29
			c-0.11,0.25-0.23,0.51-0.4,0.76c-1.16,1.8-2.56,3.17-4.13,4.23c-0.23,0.37-0.55,0.73-0.97,1.06c-4.89,3.88-11,5.15-17.14,5.25
			c-2.48,0.04-3.97-1.97-4.21-4.21c-0.13-1.24,0.07-2.45,0.36-3.66c0.45-1.83,2.25-3.03,4.06-3.09c2.1-0.07,4.86,0.04,7.49-0.28
			c0.22-0.22,0.46-0.44,0.75-0.63c1.34-0.91,2.37-1.87,3.1-3.1c0.29-0.74,0.59-1.47,0.89-2.21c0.19-0.46,0.43-0.84,0.69-1.18
			c-0.01-3.26,0.03-6.47,0.33-9.68c-0.11-1.81-0.32-3.63-0.64-5.46c-0.13-0.56-0.24-1.12-0.33-1.7c-0.02-0.08-0.03-0.17-0.05-0.25
			c0,0,0.01,0,0.01,0c-0.06-0.37-0.12-0.74-0.16-1.12c-0.08-0.74,0.05-1.37,0.31-1.92c-0.19-1.11-0.31-2.21-0.4-3.31
			c-0.79-0.7-1.35-1.71-1.39-3.02c-0.08-2.2,0.05-4.43,0.39-6.61c-0.22-0.51-0.36-1.06-0.39-1.64c-0.11-1.85,0.52-3.82,1.18-5.53
			c0.69-1.8,1.44-3.68,2.57-5.26c0.77-1.08,1.89-1.82,3.1-2.01c1.02-1.14,2.16-2.18,3.41-3.07c-0.23-0.2-0.46-0.39-0.68-0.61
			c-0.59-0.59-1.11-1.23-1.58-1.9c-4.28,0.63-5.88-4.57-7.42-7.83c-0.51-1.07-0.49-2.3-0.12-3.4c-0.4-1.04-0.41-2.24-0.03-3.29
			c-0.74-6.18,0.83-12.83,1.84-18.76c0.11-0.66,0.37-1.2,0.7-1.63c0.01-2.28,0.11-4.52,0.38-6.78c-0.26-1.73-0.52-3.46-0.67-5.21
			c-2.13-1.53-3.34-4.18-4.69-6.55c-0.33,0.02-0.67,0.03-1.02-0.02c-2.57-0.36-4.96-1.57-7.55-1.75c-2.72-0.19-4.5-2.45-4.1-4.91
			c-0.33-2.6,1.81-5.73,5.22-5.05c0.11,0.02,0.21,0.04,0.32,0.07c3.66-0.55,8.13,1.11,11.13,2.59c6.48,3.19,12.03,9.78,11.94,17.26
			c0,0.05-0.01,0.09-0.01,0.14c0,0.02,0.01,0.05,0.01,0.07c0.28,2.6-0.18,5.13-1.01,7.57c-0.28,3.49-0.43,6.95-1.2,10.37
			c0.05,0.28,0.09,0.57,0.09,0.88c0.01,4.41-0.03,8.73-0.81,13c0.46,0.44,0.84,1.01,1.09,1.74c1.41,4.29,2.3,7.56,6.89,8.68
			c0.69,0.17,1.35,0.36,1.97,0.58c0.26-0.05,0.54-0.08,0.83-0.08C487.36,171.53,488.63,174.8,487.8,177.26z"/>
	</g>
	<g>
		<path class="st1" d="M485.65,670.69C421,558.66,356.33,446.64,291.67,334.61c-0.3-0.52-0.63-1.03-1.05-1.71
			c-0.43,0.68-0.76,1.19-1.06,1.71C223.37,449.27,157.19,563.94,91.01,678.6c-0.31,0.54-0.68,1.03-1.03,1.55H490.9
			C489.15,676.99,487.45,673.81,485.65,670.69z M251.61,555.6c-8.04,0-14.83-6.79-14.83-14.83c0-8.01,6.81-14.83,14.83-14.83
			c8.04,0,14.83,6.79,14.83,14.83C266.44,548.79,259.63,555.6,251.61,555.6z M290.52,489.16c8.04,0,14.83,6.79,14.83,14.83
			c0,8.01-6.81,14.83-14.83,14.83c-8.04,0-14.83-6.79-14.83-14.83C275.69,495.97,282.51,489.16,290.52,489.16z M291.37,597.47
			c-8.04,0-14.83-6.79-14.83-14.83c0-8.01,6.81-14.83,14.83-14.83c8.04,0,14.83,6.79,14.83,14.83
			C306.19,590.66,299.38,597.47,291.37,597.47z M332.39,555.6c-8.04,0-14.83-6.79-14.83-14.83c0-8.01,6.81-14.83,14.83-14.83
			c8.04,0,14.83,6.79,14.83,14.83C347.22,548.79,340.4,555.6,332.39,555.6z"/>
	</g>
	<g>
		<path d="M687.67,670.69c-64.65-112.03-129.32-224.05-193.98-336.08c-0.3-0.52-0.63-1.03-1.05-1.71c-0.43,0.68-0.76,1.19-1.06,1.71
			C425.39,449.27,359.21,563.94,293.03,678.6c-0.31,0.54-0.68,1.03-1.03,1.55h400.92C691.17,676.99,689.47,673.81,687.67,670.69z
			 M543.65,545.85c-0.14,0.54-0.3,1.08-0.45,1.61c1.87,0.76,3.97,1.3,5.28,2.09c2.75,1.66,2.69,5.6,0,7.27
			c-4.53,2.82-9.4,4.95-14.3,7.02c-4.94,18.99-4.44,40-14.21,57.45c-1,1.79-3.98,2.88-5.76,1.51c-11.56-8.9-22.92-18.14-33.31-28.39
			c-2.51,1.21-5.13,2.18-8.13,2.32c-1.87,0.09-3.53-1.39-4.06-3.09c-1.18-3.78-0.45-7.48,0.96-10.99c-0.02-0.05-0.04-0.11-0.06-0.16
			c-2.23-2.62-4.36-5.36-6.24-8.23c-0.7-0.5-1.38-1.03-2.04-1.6c-1.26-1.1-1.5-2.54-1.12-3.85c-1.12-2.24-2.07-4.54-2.75-6.9
			c-4.61-3.83-9.01-7.91-13.17-12.22c-1.59-1.5-3.17-3-4.73-4.54c-5.76-2.4-12.37-4.44-16.3-8.86c-1.87-2.1-1.5-5.05,0.85-6.61
			c2.11-1.4,4.49-2.05,6.93-2.52c0.21-0.18,0.43-0.32,0.68-0.44c4.12-1.9,8.34-3.61,12.61-5.21c0.49-0.72,1.26-1.29,2.35-1.56
			c1.43-0.35,2.89-0.62,4.35-0.81c7.19-2.41,14.5-4.48,21.82-6.32c0.61-3.12,4.74-3.81,7.1-1.94c0.06,0.05,0.12,0.1,0.19,0.15
			c11.56-2.73,23.83-5.05,35.58-4.09c8.27-2.78,17.56-6.38,26.18-5.96c0.09,0,0.17,0.02,0.26,0.03c0.32-0.67,0.64-1.33,0.97-1.96
			c1.87-3.6,8.19-2.05,7.84,2.12c-1.14,13.69-5.34,26.82-9.68,39.88C543.01,541.8,544.25,543.53,543.65,545.85z"/>
	</g>
	<g>
		<path class="st2" d="M294.8,172.35c12.07,0,13.77-6.63,13.77-12.58c0-4.76-0.68-9.52-1.36-14.28c-0.68-4.76-1.36-9.35-1.36-14.11
			c0-15.64,10.2-22.27,24.65-22.27h3.57v9.35h-3.06c-10.03,0-13.43,5.44-13.43,14.62c0,3.91,0.51,7.99,1.19,12.07
			c0.68,4.25,1.19,8.33,1.19,12.92c0.17,10.88-4.59,16.32-12.24,18.36v0.34c7.65,1.87,12.41,7.65,12.24,18.53
			c0,4.59-0.51,8.84-1.19,12.92c-0.68,4.25-1.19,8.16-1.19,12.24c0,9.52,3.91,14.79,13.43,14.79h3.06v9.35h-3.57
			c-14.11,0-24.65-6.12-24.65-23.29c0-4.59,0.68-9.35,1.36-13.94c0.68-4.59,1.36-9.18,1.36-13.77c0-5.27-1.7-12.58-13.77-12.58
			V172.35z"/>
		<path class="st2" d="M345.79,176.85c0-6.29,4.25-10.71,10.2-10.71c5.95,0,10.03,4.42,10.03,10.71c0,6.12-3.91,10.71-10.2,10.71
			C349.87,187.56,345.79,182.97,345.79,176.85z"/>
		<path class="st2" d="M380.98,176.85c0-6.29,4.25-10.71,10.2-10.71c5.95,0,10.03,4.42,10.03,10.71c0,6.12-3.91,10.71-10.2,10.71
			C385.06,187.56,380.98,182.97,380.98,176.85z"/>
		<path class="st2" d="M416.17,176.85c0-6.29,4.25-10.71,10.2-10.71c5.95,0,10.03,4.42,10.03,10.71c0,6.12-3.91,10.71-10.2,10.71
			C420.25,187.56,416.17,182.97,416.17,176.85z"/>
		<path class="st2" d="M487.4,181.02c-12.07,0-13.77,7.31-13.77,12.58c0,4.59,0.68,9.18,1.36,13.77c0.68,4.59,1.36,9.35,1.36,13.94
			c0,17.17-10.71,23.29-24.65,23.29h-3.57v-9.35h2.89c9.52-0.17,13.6-5.27,13.6-14.79c0-4.08-0.68-7.99-1.19-12.24
			c-0.68-4.08-1.36-8.33-1.36-12.92c0-10.88,4.76-16.66,12.24-18.53v-0.34c-7.48-2.04-12.24-7.48-12.24-18.36
			c0-4.59,0.68-8.67,1.36-12.92c0.51-4.08,1.19-8.16,1.19-12.07c0-9.18-3.57-14.45-13.43-14.62h-3.06v-9.35h3.4
			c14.45,0,24.82,6.63,24.82,22.27c0,4.76-0.68,9.35-1.36,14.11c-0.68,4.76-1.36,9.52-1.36,14.28c0,5.95,1.7,12.58,13.77,12.58
			V181.02z"/>
	</g>
	<g>
		<g>
			<path d="M538.02,631.16c-14.69-9.07-28.86-18.97-42.39-29.69c-1.06-0.84-2.5-1.03-3.54,0c-0.88,0.88-1.05,2.68,0,3.54
				c12.83,10.52,26.46,20.06,40.87,28.31c2.38,1.36,5.27-2.05,3.03-3.93c-2.49-2.08-4.98-4.16-7.47-6.24
				c-1.04-0.86-2.52-1.02-3.54,0c-0.89,0.89-1.04,2.67,0,3.54c2.49,2.08,4.98,4.16,7.47,6.24c1.01-1.31,2.02-2.62,3.03-3.93
				c-14.03-8.04-27.35-17.28-39.86-27.53c-1.18,1.18-2.36,2.36-3.54,3.54c13.87,10.99,28.35,21.18,43.4,30.47
				C538.24,637.18,540.75,632.85,538.02,631.16L538.02,631.16z"/>
		</g>
	</g>
	<path class="st3" d="M413.57,526.55l58.13,57.46c-0.06-0.41-0.11-0.82-0.14-1.22c-0.2-2.82,2.03-4.14,4.27-4.03
		c-0.06-1.04-0.03-2.12,0.07-3.19c-0.45-0.31-0.86-0.72-1.16-1.23c-2.58-4.37-4.29-9.29-4.03-14.39c0.08-1.56,0.79-2.68,1.78-3.35
		c0.16-6.01-0.19-11.99-1.39-17.96c-1.04-5.21-1.99-10.99,0.3-16.02c0.68-1.5,1.64-2.83,2.81-3.95c-0.11-0.19-0.21-0.39-0.33-0.59
		c-2.28-3.77,2.17-7.63,5.87-5.76c1.91,0.97,3.76,2.02,5.57,3.13c4.57,0.91,8.58,3.97,12.09,6.8c4.99,4.03,9.64,7.96,15.8,10.25
		c5.53,2.05,11.45,2.68,17.07,4.44c5.49,1.73,11.23,5.06,12.47,9.59l15.71-57.39L413.57,526.55z"/>
	<path class="st3" d="M540.43,554.85c-5.27,5.97-13.54,9.79-21.02,12.94c-2.25,1.98-4.5,3.94-6.82,5.77
		c-8.34,6.57-17.36,11.27-28.1,12.01c-0.1,0.82-0.24,1.62-0.46,2.39c-0.4,1.42-1.27,2.63-2.4,3.51c-0.12,0.25-0.24,0.51-0.37,0.76
		c-0.57,1.11-1.51,1.73-2.56,1.98l40.25,39.11l22.04-79.13C540.81,554.41,540.63,554.63,540.43,554.85z"/>
	<polygon class="st4" points="471.89,503.38 471.52,600.04 555.04,551.88 	"/>
</g>
<g id="Layer_2">
	<polygon class="st5" points="492.63,332.9 292,680.15 692.92,680.15 	"/>
	<polygon class="st5" points="390.92,424.18 591.55,76.93 190.64,76.93 	"/>
</g>
</svg>
